<svg width="1037" height="309" viewBox="0 0 1037 309" fill="none" xmlns="http://www.w3.org/2000/svg">
<rect x="3.5" y="3.5" width="1030" height="302" rx="41.5" fill="black" stroke="#A6A6A6" stroke-width="7"/>
<path d="M455.511 199.894H436.536L418.034 129.468L399.329 199.894H379.935L354.496 108.354H371.706L390.051 181.168L410.078 108.354H427.462L446.287 181.6L463.71 108.354H480.327L455.511 199.894Z" fill="white"/>
<path d="M504.652 115.049C504.652 117.524 503.741 119.586 501.917 121.236C500.137 122.886 497.966 123.711 495.405 123.711C492.843 123.711 490.672 122.886 488.892 121.236C487.112 119.587 486.222 117.524 486.222 115.049C486.222 112.531 487.112 110.426 488.892 108.732C490.716 107.039 492.887 106.192 495.405 106.192C498.053 106.192 500.246 107.061 501.983 108.797C503.763 110.534 504.653 112.618 504.653 115.049L504.652 115.049ZM487.487 199.89V133.921H502.867V199.89H487.487Z" fill="white"/>
<path d="M562.058 199.894V163.163C562.058 153.54 559.073 145.238 549.378 145.238C539.734 145.238 533.618 153.922 533.618 162.708V199.892H518.574V133.923H533.618V143.254H533.879C538.871 135.524 546.079 132.81 555.5 132.81C562.577 132.81 568.047 134.552 571.911 139.067C575.818 143.583 577.534 150.442 577.534 159.647V199.891L562.058 199.894Z" fill="white"/>
<path d="M637.601 199.893V191.401H637.34C632.564 199.433 622.816 201.285 616.019 201.285C595.819 201.285 588.407 185.593 588.407 168.895C588.407 157.824 591.164 148.967 596.677 142.324C602.235 135.638 609.659 132.744 618.95 132.744C633.413 132.744 637.34 140.791 637.34 140.791H637.601V102.613H653.205V199.894L637.601 199.893ZM637.731 162.302C637.731 154.333 632.61 145.279 621.801 145.279C609.437 145.279 604.632 156.039 604.632 168.44C604.632 179.267 609.166 189.093 620.94 189.256C632.486 189.256 637.637 178.253 637.731 169.156V162.302Z" fill="white"/>
<path d="M731.929 166.617C731.929 189.468 718.272 201.846 697.763 201.846C675.461 201.846 664.029 188.495 664.029 168.049C664.029 144.659 677.728 132.492 699.391 132.492C719.24 132.492 731.929 145.181 731.929 166.617ZM715.908 167.138C715.908 156.972 712.304 145.671 698.544 145.671C685.346 145.671 680.219 155.493 680.219 167.529C680.219 180.605 686.377 188.922 698.45 188.922C711.383 188.922 715.814 178.995 715.908 167.138H715.908Z" fill="white"/>
<path d="M814.474 199.894H797.501L784.527 152.149L770.608 199.894H754.134L734.942 134.126H751.048L763.581 185.221L778.229 134.126H793.336L806.397 185.088L818.614 134.126H833.375L814.474 199.894Z" fill="white"/>
<path d="M881.686 181.53C881.686 196.217 868.367 201.942 855.016 201.942C846.32 201.942 837.662 198.592 837.662 198.592V182.97C837.662 182.97 845.188 189.528 855.701 189.61C862.908 189.61 866.155 187.337 866.155 183.01C866.333 179.539 864.22 177.625 861.693 176.189C859.956 175.147 857.243 173.867 853.552 172.347C849.211 170.48 845.976 168.678 843.849 166.942C841.765 165.205 840.202 163.165 839.16 160.82C838.161 158.476 837.424 155.899 837.424 152.773C837.424 140.914 847.315 132.534 863.126 132.534C873.575 132.534 878.104 135.096 878.104 135.096V149.937C878.104 149.937 870.678 144.805 862.962 144.758C857.433 144.758 853.252 146.771 853.179 151.327C853.14 157.199 860.33 160.061 864.623 161.798C870.875 164.316 875.45 167.004 878.012 170.086C880.573 173.169 881.686 176.273 881.686 181.53L881.686 181.53Z" fill="white"/>
<path d="M227.007 77.2439H154.13V150.121H227.007V77.2439Z" fill="white"/>
<path d="M307.88 77.2439H235.003V150.121H307.88V77.2439Z" fill="white"/>
<path d="M227.007 158.123H154.13V231H227.007V158.123Z" fill="white"/>
<path d="M307.88 158.123H235.003V231H307.88V158.123Z" fill="white"/>
</svg>
